<?xml version="1.0" encoding="utf-8"?><!-- Uploaded to: SVG Repo, www.svgrepo.com, Generator: SVG Repo Mixer Tools -->
<svg width="800px" height="800px" viewBox="0 0 24 24" fill="none" xmlns="http://www.w3.org/2000/svg">
<path opacity="0.15" d="M17 16C17 18.7614 14.7614 21 12 21C9.23858 21 7 18.7614 7 16C7 13.2386 9.23858 11 12 11C14.7614 11 17 13.2386 17 16Z" fill="#000000"/>
<path d="M12 11C9.23858 11 7 13.2386 7 16C7 18.7614 9.23858 21 12 21C14.7614 21 17 18.7614 17 16C17 13.2386 14.7614 11 12 11ZM12 11V3M12 3L16 7M12 3L8 7" stroke="#000000" stroke-width="1.5" stroke-linecap="round" stroke-linejoin="round"/>
</svg>